<svg width="32" height="33" viewBox="0 0 32 33" fill="none" xmlns="http://www.w3.org/2000/svg">
<path d="M11.2787 8.96754C11.2787 10.775 11.9567 12.8618 13.0924 14.5495C14.3793 16.462 16.0047 17.5152 17.6693 17.5152C19.3339 17.5152 20.9594 16.462 22.2463 14.5495C23.382 12.8618 24.06 10.775 24.06 8.96754C24.06 5.29283 21.1931 2.30319 17.6693 2.30319C14.1455 2.30326 11.2787 5.29283 11.2787 8.96754ZM17.6693 3.38998C20.6185 3.38998 23.0179 5.89212 23.0179 8.96761C23.0179 10.5365 22.3953 12.4361 21.3932 13.9254C20.3227 15.5162 18.9654 16.4286 17.6693 16.4286C16.3731 16.4286 15.0158 15.5162 13.9453 13.9254C12.9431 12.4361 12.3206 10.5365 12.3206 8.96761C12.3208 5.89205 14.7201 3.38998 17.6693 3.38998Z" fill="#FFB830"/>
<path d="M23.2504 29.9981C23.2453 29.9856 23.246 29.9876 23.248 29.9929C23.2217 29.9296 23.1847 29.8701 23.1371 29.822C22.9507 29.6218 22.632 29.6131 22.4304 29.793C22.2399 29.963 22.193 30.2604 22.3219 30.4852C22.4573 30.7213 22.7526 30.8154 22.9916 30.6972C23.2406 30.5741 23.3491 30.2688 23.2521 30.0035C23.2543 30.009 23.2552 30.0111 23.2504 29.9981Z" fill="#FFB830"/>
<path d="M5.82769 24.6647C4.07898 24.1037 2.43017 23.1429 1.04495 21.8795C1.08538 20.2226 1.55731 18.6199 2.416 17.2303C3.22731 15.9172 4.34513 14.8496 5.66332 14.1246C6.87278 15.2706 8.26065 15.874 9.6977 15.874C10.5473 15.874 11.3826 15.6629 12.1806 15.2465C12.4379 15.1122 12.5421 14.7858 12.4134 14.5174C12.2847 14.2491 11.9716 14.1403 11.7143 14.2747C11.0625 14.6148 10.384 14.7873 9.69777 14.7873C8.4328 14.7873 7.19736 14.198 6.12525 13.083C5.96928 12.9208 5.73224 12.8786 5.53334 12.9772C3.90169 13.7872 2.52084 15.0543 1.54001 16.6417C0.532512 18.2722 0 20.164 0 22.1124V22.1206C0 22.2739 0.0621091 22.4201 0.170974 22.5231C1.70362 23.9725 3.5537 25.0723 5.52132 25.7034C5.57231 25.7198 5.62393 25.7275 5.67471 25.7275C5.89744 25.7275 6.10364 25.5774 6.17256 25.3438C6.25711 25.057 6.10274 24.753 5.82769 24.6647Z" fill="#FFB830"/>
<path d="M9.67458 13.9887C10.259 13.9887 10.8422 13.84 11.4081 13.5467C11.6658 13.4131 11.7709 13.087 11.6428 12.8183C11.5148 12.5496 11.2021 12.44 10.9443 12.5736C10.5238 12.7915 10.0966 12.902 9.67458 12.902C8.58024 12.902 7.43087 12.1266 6.52126 10.7747C5.665 9.50206 5.13311 7.87988 5.13311 6.54111C5.13311 3.92972 7.17042 1.80518 9.67458 1.80518C10.8565 1.80518 11.9758 2.27639 12.8264 3.13207C13.0334 3.34036 13.3633 3.3342 13.5631 3.1183C13.7629 2.90234 13.757 2.55835 13.5499 2.35007C12.5041 1.29798 11.1278 0.718536 9.67458 0.718536C6.5958 0.718536 4.09102 3.33058 4.09102 6.54118C4.09102 8.11519 4.68063 9.93117 5.6682 11.3989C6.79193 13.0689 8.21474 13.9887 9.67458 13.9887Z" fill="#FFB830"/>
<path d="M27.799 14.4765C26.0551 14.4765 24.5565 15.5904 23.922 17.1717C23.4538 16.8397 22.9612 16.5436 22.4498 16.2895C22.2508 16.1907 22.0138 16.2331 21.8577 16.3953C20.6028 17.7006 19.1546 18.3906 17.6696 18.3906C16.1849 18.3906 14.7363 17.7006 13.4808 16.3952C13.3247 16.233 13.0878 16.1906 12.889 16.2894C11.0159 17.2191 9.43061 18.6738 8.30451 20.4961C7.14792 22.3679 6.53656 24.5396 6.53656 26.7764V26.7858C6.53656 26.9392 6.59874 27.0854 6.7076 27.1884C9.71517 30.0319 13.6082 31.5978 17.6696 31.5978C18.9507 31.5978 20.2267 31.4424 21.4619 31.136C21.7418 31.0665 21.9148 30.7735 21.8482 30.4816C21.7816 30.1897 21.501 30.0092 21.2207 30.0787C20.0644 30.3656 18.8697 30.5111 17.6697 30.5111C13.9453 30.5111 10.372 29.1042 7.58109 26.5448C7.62159 24.5991 8.17252 22.716 9.1805 21.0847C10.1368 19.5371 11.4583 18.282 13.0171 17.4366C14.4105 18.7732 16.0121 19.4773 17.6696 19.4773C19.3273 19.4773 20.9287 18.7732 22.3214 17.4368C22.7796 17.6856 23.2191 17.9715 23.6346 18.2899C23.6115 18.4758 23.5982 18.6649 23.5982 18.8573V29.1655C23.5982 31.1246 25.1267 32.7185 27.0054 32.7185C28.8841 32.7185 30.4126 31.1247 30.4126 29.1655V20.8561C30.4126 19.3948 29.2725 18.206 27.8712 18.206C26.47 18.206 25.3299 19.3948 25.3299 20.8561V28.2991C25.3299 28.5991 25.5631 28.8424 25.851 28.8424C26.1388 28.8424 26.372 28.5991 26.372 28.2991V20.8561C26.372 19.9941 27.0446 19.2927 27.8712 19.2927C28.6979 19.2927 29.3705 19.9941 29.3705 20.8561V29.1655C29.3705 30.5254 28.3095 31.6318 27.0054 31.6318C25.7012 31.6318 24.6403 30.5255 24.6403 29.1655V18.8572C24.6403 17.0409 26.0573 15.5631 27.7991 15.5631C29.5408 15.5631 30.9579 17.0409 30.9579 18.8572V28.2991C30.9579 28.5991 31.1911 28.8424 31.4789 28.8424C31.7667 28.8424 32 28.5991 32 28.2991V18.8572C31.9999 16.4417 30.1154 14.4765 27.799 14.4765Z" fill="#FFB830"/>
</svg>
