<svg width="25" height="31" viewBox="0 0 25 31" fill="none" xmlns="http://www.w3.org/2000/svg">
<path d="M5.72838 7.11963C5.72838 8.98748 6.45867 11.1432 7.68184 12.8864C9.07047 14.8653 10.8263 15.9551 12.6259 15.9551C14.4254 15.9551 16.1812 14.8653 17.5698 12.8863C18.793 11.1432 19.5233 8.9874 19.5233 7.11963C19.5233 3.31637 16.4291 0.222229 12.6259 0.222229C8.82259 0.222229 5.72838 3.31637 5.72838 7.11963ZM12.6259 1.42008C15.7685 1.42008 18.3254 3.97694 18.3254 7.11963C18.3254 8.72619 17.6602 10.6722 16.5893 12.1984C15.4482 13.8246 14.0036 14.7572 12.6259 14.7572C11.2482 14.7572 9.80355 13.8246 8.6624 12.1984C7.59152 10.6723 6.92623 8.72627 6.92623 7.11963C6.92623 3.97686 9.48309 1.42008 12.6259 1.42008Z" fill="#9EDE73"/>
<path d="M17.7012 14.8236C17.4726 14.7148 17.2002 14.7615 17.0208 14.9403C15.6812 16.2761 14.1366 16.9821 12.554 16.9821C10.9712 16.9821 9.42696 16.2761 8.08816 14.9404C7.9088 14.7615 7.63625 14.7148 7.4077 14.8236C5.39099 15.7836 3.68413 17.2855 2.47166 19.1669C1.22621 21.0994 0.567871 23.3415 0.567871 25.6509V25.6605C0.567871 25.8295 0.639263 25.9906 0.764399 26.1042C3.99797 29.0367 8.18486 30.6517 12.5539 30.6517C16.923 30.6517 21.1099 29.0366 24.3434 26.1042C24.4686 25.9906 24.54 25.8296 24.54 25.6605V25.6509C24.54 23.3415 23.8818 21.0994 22.6367 19.1669C21.4245 17.2854 19.7178 15.7836 17.7012 14.8236ZM12.5541 29.4538C8.57233 29.4538 4.75325 28.0145 1.76884 25.3949C1.8154 23.4068 2.40418 21.483 3.47866 19.8157C4.49611 18.2369 5.90008 16.955 7.55599 16.0883C9.05299 17.4584 10.773 18.18 12.5541 18.18C14.3349 18.18 16.0552 17.4585 17.553 16.0883C19.2087 16.955 20.6125 18.2369 21.6299 19.8157C22.7041 21.4829 23.2928 23.4067 23.3393 25.3949C20.3548 28.0145 16.5357 29.4538 12.5541 29.4538Z" fill="#9EDE73"/>
</svg>
