<svg width="33" height="28" viewBox="0 0 33 28" fill="none" xmlns="http://www.w3.org/2000/svg">
<path d="M10.5098 7.40611C10.5098 9.02819 11.144 10.9003 12.2063 12.4141C13.4122 14.1326 14.937 15.079 16.4998 15.079C18.0625 15.079 19.5873 14.1326 20.7932 12.414C21.8554 10.9003 22.4896 9.02812 22.4896 7.40611C22.4896 4.10327 19.8026 1.41626 16.4998 1.41626C13.1969 1.41626 10.5098 4.10327 10.5098 7.40611ZM16.4998 2.4565C19.2289 2.4565 21.4494 4.67693 21.4494 7.40611C21.4494 8.80128 20.8717 10.4913 19.9417 11.8166C18.9507 13.2288 17.6962 14.0388 16.4998 14.0388C15.3033 14.0388 14.0488 13.2288 13.0578 11.8166C12.1278 10.4913 11.5501 8.80135 11.5501 7.40611C11.5501 4.67686 13.7705 2.4565 16.4998 2.4565Z" fill="#39A2DB" />
<path d="M20.9693 13.9175C20.7709 13.823 20.5343 13.8636 20.3785 14.0188C19.2151 15.1789 17.8738 15.792 16.4994 15.792C15.1248 15.792 13.7838 15.1789 12.6212 14.019C12.4654 13.8636 12.2287 13.823 12.0303 13.9175C10.2789 14.7512 8.79664 16.0555 7.7437 17.6893C6.66213 19.3676 6.09041 21.3147 6.09041 23.3201V23.3285C6.09041 23.4753 6.15241 23.6152 6.26108 23.7138C9.06918 26.2605 12.7052 27.6629 16.4993 27.6629C20.2935 27.6629 23.9295 26.2604 26.7375 23.7138C26.8463 23.6152 26.9083 23.4753 26.9083 23.3285V23.3201C26.9083 21.3147 26.3367 19.3676 25.2554 17.6894C24.2028 16.0554 22.7206 14.7512 20.9693 13.9175ZM16.4995 26.6227C13.0417 26.6227 9.72509 25.3728 7.13336 23.0979C7.17379 21.3713 7.6851 19.7007 8.6182 18.2528C9.50178 16.8817 10.721 15.7685 12.159 15.0158C13.4591 16.2056 14.9528 16.8323 16.4995 16.8323C18.046 16.8323 19.5399 16.2057 20.8406 15.0158C22.2785 15.7685 23.4976 16.8817 24.3811 18.2528C25.314 19.7006 25.8252 21.3713 25.8656 23.0979C23.2738 25.3728 19.9572 26.6227 16.4995 26.6227Z" fill="#39A2DB" />
<path d="M31.5593 14.2451C30.6418 12.8212 29.3501 11.6845 27.8239 10.958C27.6254 10.8635 27.3887 10.904 27.233 11.0593C26.2405 12.049 25.0978 12.5722 23.9283 12.5722C23.2943 12.5722 22.6672 12.4192 22.0646 12.1177C21.8076 11.9892 21.4953 12.0932 21.3668 12.3501C21.2382 12.607 21.3422 12.9195 21.5992 13.048C22.3476 13.4225 23.1313 13.6124 23.9283 13.6124C25.2692 13.6124 26.5639 13.0758 27.6932 12.0564C28.9071 12.7012 29.9365 13.6469 30.685 14.8085C31.4787 16.0404 31.9163 17.4607 31.9567 18.929C30.6721 20.0496 29.1444 20.9019 27.5246 21.4002C27.25 21.4847 27.0959 21.7757 27.1803 22.0503C27.2491 22.2739 27.455 22.4176 27.6773 22.4176C27.7279 22.4176 27.7795 22.4102 27.8304 22.3945C29.6688 21.8291 31.3974 20.8437 32.8293 19.5451C32.938 19.4465 33 19.3066 33 19.1598V19.1525C32.9999 17.4046 32.5017 15.7077 31.5593 14.2451Z" fill="#39A2DB" />
<path d="M9.04961 11.9276C9.59955 11.9276 10.1482 11.7935 10.6804 11.529C10.9376 11.4012 11.0426 11.089 10.9148 10.8318C10.787 10.5745 10.4747 10.4696 10.2175 10.5974C9.83041 10.7898 9.43748 10.8873 9.04961 10.8873C8.0412 10.8873 6.9805 10.1998 6.13943 9.00101C5.34545 7.86936 4.85216 6.42731 4.85216 5.23769C4.85216 2.92315 6.73514 1.04017 9.04961 1.04017C10.142 1.04017 11.1766 1.45779 11.9627 2.2162C12.1694 2.41558 12.4987 2.40982 12.6981 2.20302C12.8975 1.99629 12.8916 1.66702 12.6849 1.46764C11.7039 0.521231 10.4128 0 9.04961 0C6.16148 0 3.81192 2.34963 3.81192 5.23776C3.81192 6.6511 4.36374 8.2813 5.28789 9.59852C6.34165 11.1004 7.6776 11.9276 9.04961 11.9276Z" fill="#39A2DB" />
<path d="M4.23267 20.9202C3.07086 20.4193 1.999 19.7432 1.04336 18.9088C1.08372 17.4447 1.52014 16.0287 2.31183 14.8003C3.0581 13.6423 4.08447 12.6994 5.29455 12.0564C6.42072 13.0732 7.7118 13.6082 9.04906 13.6082C9.85261 13.6082 10.6419 13.415 11.3951 13.0342C11.6514 12.9045 11.7541 12.5916 11.6245 12.3353C11.4949 12.0789 11.182 11.9762 10.9256 12.1059C10.3193 12.4124 9.68798 12.5679 9.04906 12.5679C7.88323 12.5679 6.74402 12.0463 5.75469 11.0593C5.59893 10.904 5.36231 10.8634 5.16376 10.9579C3.64126 11.6827 2.35275 12.8165 1.43741 14.2368C0.497027 15.6959 0 17.3888 0 19.1323V19.1394C0 19.2862 0.0619984 19.4261 0.170669 19.5247C1.25453 20.5077 2.48264 21.2986 3.82081 21.8755C3.88794 21.9044 3.95777 21.9181 4.0265 21.9181C4.22789 21.9181 4.41957 21.8004 4.50438 21.6038C4.61805 21.3399 4.49641 21.0339 4.23267 20.9202Z" fill="#39A2DB" />
<path d="M4.84434 21.6733C4.65911 22.1201 5.15863 22.5632 5.58063 22.3243C5.80518 22.1971 5.90539 21.9125 5.80442 21.6734C5.63749 21.2473 5.01536 21.2607 4.84434 21.6733Z" fill="#39A2DB" />
<path d="M5.80442 21.6734C5.79193 21.6415 5.81759 21.7046 5.80442 21.6734Z" fill="#39A2DB" />
<path d="M21.0368 2.21628C21.8229 1.45787 22.8575 1.04025 23.9499 1.04025C26.2644 1.04025 28.1473 2.92322 28.1473 5.23776C28.1473 6.42738 27.6541 7.86936 26.86 9.00108C26.0189 10.1999 24.9582 10.8874 23.9498 10.8874C23.562 10.8874 23.169 10.7899 22.7819 10.5975C22.5246 10.4696 22.2124 10.5745 22.0846 10.8318C21.9568 11.089 22.0617 11.4012 22.3189 11.5291C22.8512 11.7936 23.3999 11.9277 23.9498 11.9277C25.3218 11.9277 26.6578 11.1006 27.7115 9.59859C28.6358 8.28137 29.1875 6.65117 29.1875 5.23783C29.1875 2.3497 26.8379 7.51019e-05 23.9498 7.51019e-05C22.5866 7.51019e-05 21.2956 0.521306 20.3145 1.46772C20.1078 1.6671 20.1019 1.99644 20.3014 2.2031C20.5007 2.40983 20.83 2.41572 21.0368 2.21628Z" fill="#39A2DB" />
</svg>
